<svg width="33" height="25" viewBox="0 0 33 25" fill="none" xmlns="http://www.w3.org/2000/svg">
<path d="M30.1092 7.33333C29.0836 4.14833 27.4418 2.42604 25.4502 1.73333C24.8845 1.53646 24.2772 1.5 23.6744 1.5H22.7634C21.4569 1.50022 20.1827 1.89766 19.1166 2.6375L18.3694 3.15375C17.789 3.55551 17.0958 3.77123 16.3852 3.77123C15.6745 3.77123 14.9814 3.55551 14.401 3.15375L13.6538 2.63604C12.5875 1.89672 11.3133 1.49979 10.0069 1.5H9.09597C8.49312 1.5 7.88581 1.53646 7.31869 1.73333C3.77158 2.96708 1.33192 7.47187 1.50905 17.6919C1.54478 19.751 2.03598 22.026 3.93234 22.9142C4.57923 23.2189 5.28805 23.3764 6.00583 23.375C6.8126 23.388 7.60516 23.1662 8.28324 22.7377C9.64522 21.8642 10.641 20.4044 12.0849 19.6723C12.954 19.2303 13.9189 18.9997 14.8982 19H17.8737C18.8531 19 19.8177 19.2304 20.687 19.6708C22.1308 20.4058 23.1281 21.8642 24.4871 22.7377C25.0676 23.111 25.8193 23.375 26.766 23.375C27.4838 23.3764 28.1926 23.2189 28.8395 22.9142C30.7359 22.026 31.2271 19.7496 31.2628 17.6919C31.2929 16.1826 31.2547 14.6727 31.1482 13.1667M9.6869 8.79167V13.1667M7.45414 10.9792H11.9197" stroke="white" stroke-width="3" stroke-linecap="round"/>
<path d="M26.8047 10.6146C26.8047 10.9046 26.6871 11.1828 26.4777 11.388C26.2684 11.5931 25.9844 11.7083 25.6883 11.7083C25.3923 11.7083 25.1083 11.5931 24.8989 11.388C24.6896 11.1828 24.572 10.9046 24.572 10.6146C24.572 10.3245 24.6896 10.0463 24.8989 9.84117C25.1083 9.63605 25.3923 9.52081 25.6883 9.52081C25.9844 9.52081 26.2684 9.63605 26.4777 9.84117C26.6871 10.0463 26.8047 10.3245 26.8047 10.6146ZM22.3392 10.6146C22.3392 10.9046 22.2216 11.1828 22.0122 11.388C21.8029 11.5931 21.5189 11.7083 21.2228 11.7083C20.9267 11.7083 20.6428 11.5931 20.4334 11.388C20.2241 11.1828 20.1064 10.9046 20.1064 10.6146C20.1064 10.3245 20.2241 10.0463 20.4334 9.84117C20.6428 9.63605 20.9267 9.52081 21.2228 9.52081C21.5189 9.52081 21.8029 9.63605 22.0122 9.84117C22.2216 10.0463 22.3392 10.3245 22.3392 10.6146ZM23.4556 7.33331C23.7517 7.33331 24.0356 7.44855 24.245 7.65367C24.4543 7.85878 24.572 8.13698 24.572 8.42706C24.572 8.71714 24.4543 8.99534 24.245 9.20046C24.0356 9.40558 23.7517 9.52081 23.4556 9.52081C23.1595 9.52081 22.8755 9.40558 22.6662 9.20046C22.4568 8.99534 22.3392 8.71714 22.3392 8.42706C22.3392 8.13698 22.4568 7.85878 22.6662 7.65367C22.8755 7.44855 23.1595 7.33331 23.4556 7.33331ZM23.4556 11.7083C23.6022 11.7083 23.7474 11.7366 23.8828 11.7916C24.0182 11.8465 24.1413 11.9271 24.245 12.0287C24.3486 12.1302 24.4309 12.2508 24.487 12.3835C24.5431 12.5162 24.572 12.6584 24.572 12.8021C24.572 12.9457 24.5431 13.0879 24.487 13.2206C24.4309 13.3533 24.3486 13.4739 24.245 13.5755C24.1413 13.677 24.0182 13.7576 23.8828 13.8126C23.7474 13.8675 23.6022 13.8958 23.4556 13.8958C23.1595 13.8958 22.8755 13.7806 22.6662 13.5755C22.4568 13.3703 22.3392 13.0921 22.3392 12.8021C22.3392 12.512 22.4568 12.2338 22.6662 12.0287C22.8755 11.8235 23.1595 11.7083 23.4556 11.7083Z" fill="white"/>
</svg>
